<svg width="145" height="140" viewBox="0 0 145 140" fill="none" xmlns="http://www.w3.org/2000/svg">
<path d="M7.28796 33.3137C7.28796 21.296 17.0302 11.5537 29.048 11.5537H108.142C120.16 11.5537 129.902 21.296 129.902 33.3137V78.9027C129.902 90.9204 120.16 100.663 108.142 100.663H29.048C17.0303 100.663 7.28796 90.9204 7.28796 78.9027V33.3137Z" fill="#DCD9D8" fill-opacity="0.5"/>
<path fill-rule="evenodd" clip-rule="evenodd" d="M104.983 95.073H19.017C8.51948 95.0631 0.0115765 86.5565 0 76.059V19.014C0.0115792 8.51532 8.52131 0.00826681 19.02 0H104.986C115.482 0.0115735 123.988 8.51766 124 19.014V76.059C123.988 86.5565 115.481 95.0631 104.983 95.073ZM19.014 2.39999C9.84245 2.40991 2.40992 9.84245 2.4 19.014V76.059C2.40992 85.2305 9.84245 92.6631 19.014 92.673H104.98C114.152 92.6631 121.584 85.2305 121.594 76.059V19.014C121.584 9.84245 114.152 2.40991 104.98 2.39999H19.014Z" fill="#222222"/>
<path d="M103.133 116.971C100.806 113.341 98.9661 109.42 97.662 105.31C97.5007 104.813 96.9771 104.531 96.4735 104.67C95.9699 104.809 95.6644 105.319 95.78 105.828C99.919 121.98 113.57 134.644 129.713 138.335C134.289 139.381 139.613 140.052 144.238 138.953C145.204 138.723 144.928 137.353 144.014 137.295C141.962 137.16 139.896 137.232 137.838 137.095C135.817 136.957 133.806 136.69 131.819 136.295C127.799 135.521 123.904 134.196 120.245 132.359C113.279 128.836 107.373 123.526 103.133 116.971Z" fill="#222222"/>
<path d="M44.587 31.4919C50.4058 28.3293 56.9203 26.6646 63.543 26.6479C66.43 26.6629 69.887 26.7099 72.522 28.0339C74.728 29.1409 74.022 29.5579 71.667 31.2419C65.899 35.3699 59.016 36.8969 55.453 43.7259C51.988 50.3699 53.544 58.0059 59.502 62.4379C66.213 67.4299 72.682 58.1199 69.853 52.0869C69.189 50.6729 69.086 51.7029 69.739 50.4219C70.392 49.1409 72.257 48.2769 73.411 47.5729C77.245 45.2349 81.311 43.2729 84.362 39.8729C90.31 33.2549 90.462 23.3199 83.48 17.4469C70.367 6.41887 48.995 12.1159 38.962 24.1989C35.712 28.1159 39.743 34.1969 44.587 31.4919Z" fill="#222222"/>
<path d="M73.4671 70.6494C72.6246 69.805 71.5769 69.1944 70.4271 68.8774H70.4191L68.5901 68.6324C67.6698 68.5903 66.7549 68.7946 65.9401 69.2244C65.3662 69.3828 64.8434 69.6878 64.4231 70.1094C63.6771 70.5906 63.067 71.2551 62.6511 72.0394L62.6461 72.0464C62.0287 73.101 61.7042 74.3013 61.7061 75.5234C61.7806 77.3351 62.4957 79.0616 63.7241 80.3954C64.5666 81.2397 65.6142 81.8504 66.7641 82.1674C68.5717 82.5807 70.4675 82.3349 72.1101 81.4744L73.4851 80.4114C74.0222 79.9144 74.4462 79.3077 74.7281 78.6324C74.8476 78.3979 74.9537 78.1568 75.0461 77.9104C75.1883 77.6015 75.2824 77.2727 75.3251 76.9354C75.4267 76.4714 75.4803 75.9983 75.4851 75.5234C75.4102 73.712 74.6951 71.986 73.4671 70.6524V70.6494Z" fill="#222222"/>
</svg>
