<svg width="31" height="31" viewBox="0 0 31 31" fill="none" xmlns="http://www.w3.org/2000/svg">
<path d="M7.97144 6.64258H20.9619V9.59496H7.97144V6.64258ZM7.97144 12.5473H21.1095V15.4997H7.97144V12.5473ZM7.97144 18.3045H13.2857V21.2569H7.97144V18.3045Z" fill="#222222"/>
<path d="M5.4619 3.83812H23.4714V13.4334H26.4238V0.885742H2.50952V29.2286H12.8429V26.2762H5.4619V3.83812Z" fill="#222222"/>
<path d="M26.719 22.8813L28.4904 20.5194L26.1285 18.8956L27.6047 16.9765L25.0952 15.2051L20.9619 20.9622C20.2238 20.8146 19.4857 20.667 18.7476 20.8146C17.5666 20.9622 16.3857 21.7003 15.6476 22.7337C14.1714 24.8003 14.6143 27.7527 16.8285 29.3765C17.5666 29.967 18.6 30.2622 19.6333 30.2622H20.3714C21.5524 30.1146 22.7333 29.3765 23.4714 28.3432C24.6524 26.5717 24.6524 24.3575 23.4714 22.8813L24.5047 21.5527L26.719 22.8813V22.8813ZM21.1095 26.4241C20.8143 26.867 20.3714 27.0146 19.9285 27.1622C19.4857 27.3098 19.0428 27.1622 18.6 26.867C17.8619 26.2765 17.5666 25.2432 18.1571 24.3575C18.4524 23.9146 18.8952 23.767 19.3381 23.6194H19.6333C19.9285 23.6194 20.3714 23.767 20.6666 23.9146C21.5524 24.5051 21.7 25.686 21.1095 26.4241V26.4241Z" fill="#222222"/>
</svg>
